<svg xmlns="http://www.w3.org/2000/svg" viewBox="-25 -25 434 150" width="434" height="150">
<!-- Museo de Artes y Tradiciones Populares "Luis Repetto Málaga" — lockup Nivel 2 según Manual de identidad visual PUCP 2025 (pág. 80-85). Isotipo oficial PUCP (signo registrado). Texto: Montserrat 400/800 (sustituto oficial de TT Norms) en trazados. Área de protección D/4 incluida. Versión: sobre azul PUCP, todo blanco -->
<rect x="-25" y="-25" width="434" height="150" fill="#042354"/>
<g fill="#FFFFFF" transform="translate(-5.9077 -3.3098) scale(0.190186) translate(0 569) scale(0.1 -0.1)">
<path d="M2747 5510 c-652 -51 -1240 -326 -1693 -791 -385 -397 -620 -864 -715 -1424 -27 -155 -37 -501 -20 -671 16 -157 61 -382 106 -521 l35 -112 48 20 c273 118 663 134 1077 44 245 -53 439 -116 803 -262 145 -58 265 -103 267 -101 2 2 -45 119 -106 260 -60 142 -109 268 -109 280 0 30 24 117 40 148 18 36 80 110 91 110 5 0 9 -7 9 -15 0 -40 109 -340 165 -452 73 -149 117 -213 144 -213 19 0 19 3 -5 60 -52 129 -121 419 -139 585 -3 33 -9 73 -12 89 l-5 29 93 -5 c182 -10 427 -118 859 -379 322 -195 437 -243 610 -255 147 -11 283 34 354 118 l33 38 91 0 c51 0 92 -3 92 -6 0 -3 -30 -98 -66 -210 -50 -155 -74 -215 -100 -249 l-34 -45 27 6 c217 53 462 184 600 322 81 81 178 229 203 310 23 75 54 253 71 409 15 146 7 513 -16 653 -134 856 -672 1590 -1439 1965 -232 113 -427 178 -666 224 -211 40 -491 57 -693 41z m-922 -1067 c45 -347 56 -361 320 -401 116 -17 120 -19 120 -42 0 -24 -5 -26 -100 -42 -208 -35 -238 -47 -271 -109 -10 -20 -24 -118 -40 -277 -32 -326 -30 -312 -59 -312 -30 0 -29 -4 -50 225 -26 286 -34 336 -60 376 -32 49 -70 64 -226 91 -129 22 -134 24 -134 48 0 23 4 25 120 42 263 39 273 52 320 401 5 41 9 47 30 47 21 0 25 -6 30 -47z m1847 -107 c102 -19 191 -59 184 -83 -3 -10 -13 -52 -22 -93 -9 -41 -17 -76 -19 -78 -1 -1 -35 20 -75 48 -87 60 -199 105 -308 123 -120 21 -132 35 -51 62 103 34 183 40 291 21z m183 -326 c154 -12 303 -44 440 -95 113 -42 255 -112 255 -126 0 -6 -11 -32 -25 -60 -240 -472 -252 -1086 -31 -1563 19 -42 30 -76 24 -76 -6 0 -45 33 -87 73 -129 121 -364 272 -488 315 -29 10 -34 18 -61 104 -83 260 -87 597 -10 847 11 35 16 67 11 71 -30 29 -304 103 -425 115 -73 8 -97 -8 -30 -19 68 -13 206 -58 285 -94 60 -27 76 -39 72 -51 -28 -71 -68 -204 -86 -291 -18 -86 -22 -138 -23 -285 0 -194 12 -287 59 -449 14 -49 24 -90 22 -92 -2 -2 -46 25 -98 60 -435 291 -816 406 -1044 314 l-60 -24 2 -63 c1 -36 -2 -60 -7 -55 -5 5 -22 43 -39 84 -92 233 -81 501 31 726 l43 87 77 37 c42 21 104 46 137 55 59 18 61 20 82 74 12 31 38 87 56 124 l34 69 92 43 c170 79 366 131 547 145 52 4 100 8 105 9 6 0 69 -4 140 -9z"/>
<path d="M1110 1957 c0 -9 42 -37 97 -67 208 -111 354 -225 693 -541 266 -247 424 -375 665 -536 248 -166 467 -277 700 -356 118 -39 123 -40 260 -40 226 0 379 40 615 158 152 77 161 84 154 111 -5 18 -16 23 -67 29 -190 21 -462 94 -721 192 -250 95 -386 167 -1063 569 -188 112 -391 228 -450 258 -205 103 -448 177 -688 210 -206 29 -195 29 -195 13z"/>
<path d="M610 1847 c-51 -11 -55 -14 -53 -40 1 -15 24 -75 52 -133 214 -449 667 -881 1186 -1134 347 -169 690 -250 1060 -250 l163 0 9 27 c9 26 7 27 -176 119 -360 179 -579 345 -1071 810 -372 352 -592 507 -820 579 -100 32 -261 42 -350 22z"/>
<path d="M2575 1559 c-8 -13 -14 -8 69 -59 194 -118 524 -290 739 -386 378 -169 656 -234 946 -221 151 6 225 24 350 84 77 37 108 59 175 126 89 89 206 232 279 342 l47 70 -25 24 -24 24 -68 -31 c-300 -137 -692 -202 -1128 -188 -399 12 -821 77 -1182 182 -168 48 -169 49 -178 33z"/>
</g>
<g fill="#FFFFFF">
<path d="M125.54 13.50L124.18 13.50L124.18 0.10L125.35 0.10L131.17 10.04L136.93 0.10L138.10 0.10L138.10 13.50L136.74 13.50L136.74 2.78L131.48 11.80L130.81 11.80L125.54 2.84L125.54 13.50ZM147.86 13.61L147.86 13.61Q145.30 13.61 143.82 12.14Q142.35 10.67 142.35 7.78L142.35 7.78L142.35 0.10L143.77 0.10L143.77 7.72Q143.77 10.09 144.84 11.22Q145.91 12.35 147.86 12.35L147.86 12.35Q149.83 12.35 150.91 11.22Q151.98 10.09 151.98 7.72L151.98 7.72L151.98 0.10L153.36 0.10L153.36 7.78Q153.36 10.67 151.89 12.14Q150.43 13.61 147.86 13.61ZM161.32 13.61L161.32 13.61Q159.83 13.61 158.46 13.13Q157.09 12.64 156.34 11.87L156.34 11.87L156.90 10.78Q157.61 11.47 158.80 11.94Q160.00 12.41 161.32 12.41L161.32 12.41Q162.58 12.41 163.38 12.09Q164.17 11.78 164.54 11.24Q164.92 10.71 164.92 10.05L164.92 10.05Q164.92 9.27 164.47 8.79Q164.02 8.31 163.29 8.03Q162.56 7.76 161.68 7.55Q160.80 7.34 159.92 7.10Q159.04 6.86 158.30 6.46Q157.57 6.05 157.12 5.39Q156.67 4.73 156.67 3.66L156.67 3.66Q156.67 2.67 157.19 1.83Q157.72 1.00 158.81 0.49Q159.90-0.01 161.61-0.01L161.61-0.01Q162.74-0.01 163.85 0.30Q164.96 0.62 165.76 1.17L165.76 1.17L165.28 2.30Q164.42 1.73 163.45 1.46Q162.49 1.19 161.59 1.19L161.59 1.19Q160.38 1.19 159.60 1.52Q158.81 1.84 158.44 2.39Q158.07 2.93 158.07 3.62L158.07 3.62Q158.07 4.41 158.51 4.89Q158.96 5.36 159.70 5.63Q160.44 5.90 161.32 6.11Q162.20 6.32 163.07 6.57Q163.94 6.82 164.68 7.21Q165.42 7.60 165.87 8.25Q166.32 8.91 166.32 9.96L166.32 9.96Q166.32 10.93 165.78 11.77Q165.24 12.60 164.14 13.11Q163.04 13.61 161.32 13.61ZM178.87 13.50L169.40 13.50L169.40 0.10L178.59 0.10L178.59 1.33L170.81 1.33L170.81 6.09L177.74 6.09L177.74 7.30L170.81 7.30L170.81 12.27L178.87 12.27L178.87 13.50ZM188.06 13.61L188.06 13.61Q186.55 13.61 185.26 13.11Q183.97 12.60 183.02 11.67Q182.07 10.74 181.54 9.51Q181.02 8.27 181.02 6.80L181.02 6.80Q181.02 5.33 181.54 4.09Q182.07 2.86 183.02 1.93Q183.97 1.00 185.25 0.49Q186.53-0.01 188.06-0.01L188.06-0.01Q189.57-0.01 190.86 0.49Q192.14 1.00 193.09 1.92Q194.03 2.84 194.56 4.08Q195.09 5.33 195.09 6.80L195.09 6.80Q195.09 8.27 194.56 9.52Q194.03 10.76 193.09 11.68Q192.14 12.60 190.86 13.11Q189.57 13.61 188.06 13.61ZM188.06 12.35L188.06 12.35Q189.27 12.35 190.29 11.94Q191.32 11.53 192.07 10.77Q192.83 10.02 193.25 9.01Q193.67 8.01 193.67 6.80L193.67 6.80Q193.67 5.59 193.25 4.59Q192.83 3.58 192.07 2.83Q191.32 2.07 190.29 1.66Q189.27 1.25 188.06 1.25L188.06 1.25Q186.86 1.25 185.82 1.66Q184.79 2.07 184.03 2.83Q183.28 3.58 182.85 4.59Q182.41 5.59 182.41 6.80L182.41 6.80Q182.41 7.99 182.85 9.00Q183.28 10.02 184.03 10.77Q184.79 11.53 185.82 11.94Q186.86 12.35 188.06 12.35ZM208.74 13.50L203.28 13.50L203.28 0.10L208.74 0.10Q210.88 0.10 212.50 0.95Q214.12 1.80 215.02 3.32Q215.91 4.83 215.91 6.80L215.91 6.80Q215.91 8.77 215.02 10.28Q214.12 11.80 212.50 12.65Q210.88 13.50 208.74 13.50L208.74 13.50ZM204.70 1.33L204.70 12.27L208.66 12.27Q210.44 12.27 211.75 11.58Q213.06 10.88 213.79 9.64Q214.52 8.41 214.52 6.80L214.52 6.80Q214.52 5.17 213.79 3.95Q213.06 2.72 211.75 2.02Q210.44 1.33 208.66 1.33L208.66 1.33L204.70 1.33ZM228.57 13.50L219.09 13.50L219.09 0.10L228.28 0.10L228.28 1.33L220.51 1.33L220.51 6.09L227.44 6.09L227.44 7.30L220.51 7.30L220.51 12.27L228.57 12.27L228.57 13.50ZM236.24 13.50L234.77 13.50L240.90 0.10L242.29 0.10L248.42 13.50L246.93 13.50L245.32 9.92L237.85 9.92L236.24 13.50ZM238.37 8.77L244.80 8.77L241.59 1.57L238.37 8.77ZM252.06 13.50L250.64 13.50L250.64 0.10L255.66 0.10Q258.20 0.10 259.67 1.32Q261.13 2.53 261.13 4.69L261.13 4.69Q261.13 6.11 260.47 7.13Q259.81 8.16 258.58 8.70L258.58 8.70Q258.34 8.81 258.07 8.91L258.07 8.91L261.34 13.50L259.79 13.50L256.73 9.19Q256.23 9.25 255.66 9.25L255.66 9.25L252.06 9.25L252.06 13.50ZM252.06 1.33L252.06 8.04L255.62 8.04Q257.63 8.04 258.67 7.16Q259.71 6.28 259.71 4.69L259.71 4.69Q259.71 3.09 258.67 2.21Q257.63 1.33 255.62 1.33L255.62 1.33L252.06 1.33ZM268.50 13.50L267.08 13.50L267.08 1.33L262.37 1.33L262.37 0.10L273.21 0.10L273.21 1.33L268.50 1.33L268.50 13.50ZM284.94 13.50L275.47 13.50L275.47 0.10L284.66 0.10L284.66 1.33L276.88 1.33L276.88 6.09L283.81 6.09L283.81 7.30L276.88 7.30L276.88 12.27L284.94 12.27L284.94 13.50ZM291.97 13.61L291.97 13.61Q290.48 13.61 289.11 13.13Q287.74 12.64 286.99 11.87L286.99 11.87L287.55 10.78Q288.26 11.47 289.45 11.94Q290.65 12.41 291.97 12.41L291.97 12.41Q293.23 12.41 294.03 12.09Q294.82 11.78 295.19 11.24Q295.57 10.71 295.57 10.05L295.57 10.05Q295.57 9.27 295.12 8.79Q294.67 8.31 293.94 8.03Q293.21 7.76 292.33 7.55Q291.45 7.34 290.57 7.10Q289.69 6.86 288.95 6.46Q288.22 6.05 287.77 5.39Q287.32 4.73 287.32 3.66L287.32 3.66Q287.32 2.67 287.84 1.83Q288.37 1.00 289.46 0.49Q290.55-0.01 292.26-0.01L292.26-0.01Q293.39-0.01 294.50 0.30Q295.61 0.62 296.41 1.17L296.41 1.17L295.93 2.30Q295.07 1.73 294.10 1.46Q293.14 1.19 292.24 1.19L292.24 1.19Q291.03 1.19 290.25 1.52Q289.46 1.84 289.09 2.39Q288.72 2.93 288.72 3.62L288.72 3.62Q288.72 4.41 289.17 4.89Q289.61 5.36 290.35 5.63Q291.09 5.90 291.97 6.11Q292.85 6.32 293.72 6.57Q294.59 6.82 295.33 7.21Q296.07 7.60 296.52 8.25Q296.97 8.91 296.97 9.96L296.97 9.96Q296.97 10.93 296.43 11.77Q295.89 12.60 294.79 13.11Q293.69 13.61 291.97 13.61ZM309.66 13.50L308.26 13.50L308.26 8.87L302.90 0.10L304.41 0.10L309.01 7.62L313.60 0.10L315.02 0.10L309.66 8.87L309.66 13.50Z"/>
<path d="M128.20 34.50L126.79 34.50L126.79 22.33L122.08 22.33L122.08 21.10L132.91 21.10L132.91 22.33L128.20 22.33L128.20 34.50ZM136.59 34.50L135.17 34.50L135.17 21.10L140.19 21.10Q142.73 21.10 144.20 22.32Q145.66 23.53 145.66 25.69L145.66 25.69Q145.66 27.11 145.00 28.13Q144.34 29.16 143.11 29.70L143.11 29.70Q142.87 29.81 142.60 29.91L142.60 29.91L145.87 34.50L144.32 34.50L141.26 30.19Q140.76 30.25 140.19 30.25L140.19 30.25L136.59 30.25L136.59 34.50ZM136.59 22.33L136.59 29.04L140.15 29.04Q142.16 29.04 143.20 28.16Q144.24 27.28 144.24 25.69L144.24 25.69Q144.24 24.09 143.20 23.21Q142.16 22.33 140.15 22.33L140.15 22.33L136.59 22.33ZM148.34 34.50L146.87 34.50L152.99 21.10L154.39 21.10L160.52 34.50L159.02 34.50L157.41 30.92L149.95 30.92L148.34 34.50ZM150.47 29.77L156.90 29.77L153.68 22.57L150.47 29.77ZM168.19 34.50L162.74 34.50L162.74 21.10L168.19 21.10Q170.34 21.10 171.95 21.95Q173.57 22.80 174.47 24.32Q175.37 25.83 175.37 27.80L175.37 27.80Q175.37 29.77 174.47 31.28Q173.57 32.80 171.95 33.65Q170.34 34.50 168.19 34.50L168.19 34.50ZM164.15 22.33L164.15 33.27L168.12 33.27Q169.90 33.27 171.21 32.58Q172.52 31.88 173.25 30.64Q173.97 29.41 173.97 27.80L173.97 27.80Q173.97 26.17 173.25 24.95Q172.52 23.72 171.21 23.02Q169.90 22.33 168.12 22.33L168.12 22.33L164.15 22.33ZM179.96 34.50L178.55 34.50L178.55 21.10L179.96 21.10L179.96 34.50ZM190.15 34.61L190.15 34.61Q188.64 34.61 187.35 34.11Q186.07 33.60 185.13 32.68Q184.20 31.76 183.67 30.52Q183.14 29.27 183.14 27.80L183.14 27.80Q183.14 26.33 183.67 25.08Q184.20 23.84 185.14 22.92Q186.09 22.00 187.37 21.49Q188.66 20.99 190.17 20.99L190.17 20.99Q191.62 20.99 192.91 21.47Q194.19 21.96 195.07 22.94L195.07 22.94L194.17 23.84Q193.35 23.00 192.35 22.62Q191.35 22.25 190.21 22.25L190.21 22.25Q189.00 22.25 187.97 22.66Q186.93 23.07 186.17 23.83Q185.40 24.58 184.97 25.59Q184.54 26.59 184.54 27.80L184.54 27.80Q184.54 29.01 184.97 30.01Q185.40 31.02 186.17 31.77Q186.93 32.53 187.97 32.94Q189.00 33.35 190.21 33.35L190.21 33.35Q191.35 33.35 192.35 32.97Q193.35 32.59 194.17 31.74L194.17 31.74L195.07 32.64Q194.19 33.62 192.91 34.12Q191.62 34.61 190.15 34.61ZM199.32 34.50L197.90 34.50L197.90 21.10L199.32 21.10L199.32 34.50ZM209.54 34.61L209.54 34.61Q208.03 34.61 206.74 34.11Q205.44 33.60 204.50 32.67Q203.55 31.74 203.02 30.51Q202.50 29.27 202.50 27.80L202.50 27.80Q202.50 26.33 203.02 25.09Q203.55 23.86 204.50 22.93Q205.44 22.00 206.73 21.49Q208.01 20.99 209.54 20.99L209.54 20.99Q211.05 20.99 212.34 21.49Q213.62 22.00 214.57 22.92Q215.51 23.84 216.04 25.08Q216.57 26.33 216.57 27.80L216.57 27.80Q216.57 29.27 216.04 30.52Q215.51 31.76 214.57 32.68Q213.62 33.60 212.34 34.11Q211.05 34.61 209.54 34.61ZM209.54 33.35L209.54 33.35Q210.75 33.35 211.77 32.94Q212.79 32.53 213.55 31.77Q214.31 31.02 214.73 30.01Q215.15 29.01 215.15 27.80L215.15 27.80Q215.15 26.59 214.73 25.59Q214.31 24.58 213.55 23.83Q212.79 23.07 211.77 22.66Q210.75 22.25 209.54 22.25L209.54 22.25Q208.33 22.25 207.30 22.66Q206.27 23.07 205.51 23.83Q204.75 24.58 204.32 25.59Q203.89 26.59 203.89 27.80L203.89 27.80Q203.89 28.99 204.32 30.00Q204.75 31.02 205.51 31.77Q206.27 32.53 207.30 32.94Q208.33 33.35 209.54 33.35ZM221.16 34.50L219.74 34.50L219.74 21.10L220.91 21.10L229.54 31.97L229.54 21.10L230.94 21.10L230.94 34.50L229.77 34.50L221.16 23.63L221.16 34.50ZM244.78 34.50L235.31 34.50L235.31 21.10L244.50 21.10L244.50 22.33L236.72 22.33L236.72 27.09L243.65 27.09L243.65 28.30L236.72 28.30L236.72 33.27L244.78 33.27L244.78 34.50ZM251.81 34.61L251.81 34.61Q250.31 34.61 248.95 34.13Q247.58 33.64 246.83 32.87L246.83 32.87L247.39 31.78Q248.09 32.47 249.29 32.94Q250.49 33.41 251.81 33.41L251.81 33.41Q253.07 33.41 253.87 33.09Q254.66 32.78 255.03 32.24Q255.41 31.71 255.41 31.05L255.41 31.05Q255.41 30.27 254.96 29.79Q254.51 29.31 253.78 29.03Q253.05 28.76 252.17 28.55Q251.29 28.34 250.41 28.10Q249.53 27.86 248.79 27.46Q248.06 27.05 247.61 26.39Q247.16 25.73 247.16 24.66L247.16 24.66Q247.16 23.67 247.68 22.83Q248.21 22.00 249.30 21.49Q250.39 20.99 252.09 20.99L252.09 20.99Q253.22 20.99 254.33 21.30Q255.44 21.62 256.25 22.17L256.25 22.17L255.77 23.30Q254.91 22.73 253.94 22.46Q252.98 22.19 252.08 22.19L252.08 22.19Q250.87 22.19 250.08 22.52Q249.30 22.84 248.93 23.39Q248.55 23.93 248.55 24.62L248.55 24.62Q248.55 25.41 249.00 25.89Q249.45 26.36 250.19 26.63Q250.93 26.90 251.81 27.11Q252.69 27.32 253.56 27.57Q254.43 27.82 255.17 28.21Q255.90 28.60 256.35 29.25Q256.80 29.91 256.80 30.96L256.80 30.96Q256.80 31.93 256.27 32.77Q255.73 33.60 254.63 34.11Q253.53 34.61 251.81 34.61ZM266.32 34.50L264.90 34.50L264.90 21.10L269.92 21.10Q271.62 21.10 272.85 21.65Q274.07 22.19 274.73 23.22Q275.39 24.24 275.39 25.69L275.39 25.69Q275.39 27.11 274.73 28.13Q274.07 29.16 272.85 29.71Q271.62 30.27 269.92 30.27L269.92 30.27L266.32 30.27L266.32 34.50ZM266.32 22.33L266.32 29.03L269.88 29.03Q271.89 29.03 272.93 28.15Q273.98 27.28 273.98 25.69L273.98 25.69Q273.98 24.09 272.93 23.21Q271.89 22.33 269.88 22.33L269.88 22.33L266.32 22.33ZM284.50 34.61L284.50 34.61Q282.99 34.61 281.70 34.11Q280.41 33.60 279.46 32.67Q278.51 31.74 277.99 30.51Q277.46 29.27 277.46 27.80L277.46 27.80Q277.46 26.33 277.99 25.09Q278.51 23.86 279.46 22.93Q280.41 22.00 281.69 21.49Q282.97 20.99 284.50 20.99L284.50 20.99Q286.02 20.99 287.30 21.49Q288.58 22.00 289.53 22.92Q290.48 23.84 291.00 25.08Q291.53 26.33 291.53 27.80L291.53 27.80Q291.53 29.27 291.00 30.52Q290.48 31.76 289.53 32.68Q288.58 33.60 287.30 34.11Q286.02 34.61 284.50 34.61ZM284.50 33.35L284.50 33.35Q285.71 33.35 286.73 32.94Q287.76 32.53 288.51 31.77Q289.27 31.02 289.69 30.01Q290.11 29.01 290.11 27.80L290.11 27.80Q290.11 26.59 289.69 25.59Q289.27 24.58 288.51 23.83Q287.76 23.07 286.73 22.66Q285.71 22.25 284.50 22.25L284.50 22.25Q283.30 22.25 282.26 22.66Q281.23 23.07 280.47 23.83Q279.72 24.58 279.29 25.59Q278.86 26.59 278.86 27.80L278.86 27.80Q278.86 28.99 279.29 30.00Q279.72 31.02 280.47 31.77Q281.23 32.53 282.26 32.94Q283.30 33.35 284.50 33.35ZM296.12 34.50L294.71 34.50L294.71 21.10L299.72 21.10Q301.43 21.10 302.65 21.65Q303.88 22.19 304.54 23.22Q305.20 24.24 305.20 25.69L305.20 25.69Q305.20 27.11 304.54 28.13Q303.88 29.16 302.65 29.71Q301.43 30.27 299.72 30.27L299.72 30.27L296.12 30.27L296.12 34.50ZM296.12 22.33L296.12 29.03L299.68 29.03Q301.69 29.03 302.74 28.15Q303.78 27.28 303.78 25.69L303.78 25.69Q303.78 24.09 302.74 23.21Q301.69 22.33 299.68 22.33L299.68 22.33L296.12 22.33ZM313.85 34.61L313.85 34.61Q311.28 34.61 309.81 33.14Q308.34 31.67 308.34 28.78L308.34 28.78L308.34 21.10L309.75 21.10L309.75 28.72Q309.75 31.09 310.83 32.22Q311.90 33.35 313.85 33.35L313.85 33.35Q315.82 33.35 316.89 32.22Q317.97 31.09 317.97 28.72L317.97 28.72L317.97 21.10L319.34 21.10L319.34 28.78Q319.34 31.67 317.88 33.14Q316.41 34.61 313.85 34.61ZM332.53 34.50L323.61 34.50L323.61 21.10L325.03 21.10L325.03 33.27L332.53 33.27L332.53 34.50ZM334.22 34.50L332.74 34.50L338.87 21.10L340.27 21.10L346.39 34.50L344.90 34.50L343.29 30.92L335.83 30.92L334.22 34.50ZM336.34 29.77L342.77 29.77L339.56 22.57L336.34 29.77ZM350.03 34.50L348.61 34.50L348.61 21.10L353.63 21.10Q356.17 21.10 357.64 22.32Q359.10 23.53 359.10 25.69L359.10 25.69Q359.10 27.11 358.44 28.13Q357.78 29.16 356.56 29.70L356.56 29.70Q356.31 29.81 356.04 29.91L356.04 29.91L359.31 34.50L357.76 34.50L354.70 30.19Q354.20 30.25 353.63 30.25L353.63 30.25L350.03 30.25L350.03 34.50ZM350.03 22.33L350.03 29.04L353.59 29.04Q355.60 29.04 356.64 28.16Q357.69 27.28 357.69 25.69L357.69 25.69Q357.69 24.09 356.64 23.21Q355.60 22.33 353.59 22.33L353.59 22.33L350.03 22.33ZM371.93 34.50L362.45 34.50L362.45 21.10L371.64 21.10L371.64 22.33L363.87 22.33L363.87 27.09L370.80 27.09L370.80 28.30L363.87 28.30L363.87 33.27L371.93 33.27L371.93 34.50ZM378.95 34.61L378.95 34.61Q377.46 34.61 376.09 34.13Q374.72 33.64 373.98 32.87L373.98 32.87L374.53 31.78Q375.24 32.47 376.44 32.94Q377.63 33.41 378.95 33.41L378.95 33.41Q380.22 33.41 381.01 33.09Q381.81 32.78 382.18 32.24Q382.55 31.71 382.55 31.05L382.55 31.05Q382.55 30.27 382.10 29.79Q381.65 29.31 380.93 29.03Q380.20 28.76 379.32 28.55Q378.44 28.34 377.56 28.10Q376.68 27.86 375.94 27.46Q375.20 27.05 374.75 26.39Q374.30 25.73 374.30 24.66L374.30 24.66Q374.30 23.67 374.83 22.83Q375.36 22.00 376.45 21.49Q377.54 20.99 379.24 20.99L379.24 20.99Q380.37 20.99 381.48 21.30Q382.59 21.62 383.40 22.17L383.40 22.17L382.92 23.30Q382.06 22.73 381.09 22.46Q380.12 22.19 379.22 22.19L379.22 22.19Q378.02 22.19 377.23 22.52Q376.45 22.84 376.07 23.39Q375.70 23.93 375.70 24.62L375.70 24.62Q375.70 25.41 376.15 25.89Q376.60 26.36 377.34 26.63Q378.07 26.90 378.95 27.11Q379.84 27.32 380.71 27.57Q381.58 27.82 382.31 28.21Q383.05 28.60 383.50 29.25Q383.95 29.91 383.95 30.96L383.95 30.96Q383.95 31.93 383.41 32.77Q382.88 33.60 381.78 34.11Q380.68 34.61 378.95 34.61Z"/>
<path d="M140.58 65L124.16 65L124.16 43.40L130.27 43.40L130.27 60.16L140.58 60.16L140.58 65ZM152.95 65.43L152.95 65.43Q148.17 65.43 145.48 62.81Q142.80 60.19 142.80 55.37L142.80 55.37L142.80 43.40L148.91 43.40L148.91 55.19Q148.91 57.96 150.00 59.17Q151.10 60.37 153.01 60.37L153.01 60.37Q154.92 60.37 156.00 59.17Q157.08 57.96 157.08 55.19L157.08 55.19L157.08 43.40L163.10 43.40L163.10 55.37Q163.10 60.19 160.42 62.81Q157.73 65.43 152.95 65.43ZM173.35 65L167.24 65L167.24 43.40L173.35 43.40L173.35 65ZM185.29 65.43L185.29 65.43Q182.63 65.43 180.18 64.77Q177.73 64.11 176.19 63.06L176.19 63.06L178.19 58.55Q179.64 59.48 181.54 60.08Q183.44 60.68 185.32 60.68L185.32 60.68Q186.58 60.68 187.36 60.45Q188.13 60.22 188.48 59.83Q188.84 59.45 188.84 58.92L188.84 58.92Q188.84 58.18 188.16 57.75Q187.48 57.32 186.40 57.04Q185.32 56.76 184.01 56.48Q182.70 56.21 181.38 55.77Q180.07 55.34 178.99 54.65Q177.91 53.95 177.23 52.83Q176.56 51.70 176.56 49.97L176.56 49.97Q176.56 48.03 177.62 46.45Q178.68 44.88 180.81 43.92Q182.94 42.97 186.12 42.97L186.12 42.97Q188.25 42.97 190.30 43.45Q192.35 43.92 193.96 44.85L193.96 44.85L192.08 49.39Q190.53 48.55 189.02 48.14Q187.51 47.72 186.09 47.72L186.09 47.72Q184.83 47.72 184.05 47.98Q183.28 48.24 182.94 48.68Q182.60 49.11 182.60 49.66L182.60 49.66Q182.60 50.37 183.27 50.79Q183.93 51.21 185.03 51.47Q186.12 51.73 187.43 52.01Q188.74 52.29 190.06 52.70Q191.37 53.12 192.45 53.81Q193.53 54.51 194.19 55.63Q194.85 56.76 194.85 58.46L194.85 58.46Q194.85 60.34 193.79 61.93Q192.72 63.52 190.61 64.48Q188.50 65.43 185.29 65.43ZM212.75 65L206.64 65L206.64 43.40L216.30 43.40Q221.02 43.40 223.57 45.54Q226.11 47.69 226.11 51.39L226.11 51.39Q226.11 53.83 224.94 55.59L224.94 55.59Q223.83 57.29 221.88 58.21L221.88 58.21L226.54 65L220.00 65L216.08 59.26L212.75 59.26L212.75 65ZM212.75 48.21L212.75 54.54L216.15 54.54Q218.06 54.54 219.00 53.71Q219.94 52.87 219.94 51.39L219.94 51.39Q219.94 49.88 219.00 49.05Q218.06 48.21 216.15 48.21L216.15 48.21L212.75 48.21ZM246.82 65L229.48 65L229.48 43.40L246.42 43.40L246.42 48.12L235.52 48.12L235.52 51.76L245.12 51.76L245.12 56.33L235.52 56.33L235.52 60.28L246.82 60.28L246.82 65ZM256.32 65L250.21 65L250.21 43.40L260.09 43.40Q263.05 43.40 265.19 44.36Q267.34 45.31 268.51 47.12Q269.68 48.92 269.68 51.39L269.68 51.39Q269.68 53.83 268.51 55.62Q267.34 57.41 265.19 58.38Q263.05 59.35 260.09 59.35L260.09 59.35L256.32 59.35L256.32 65ZM256.32 48.21L256.32 54.54L259.72 54.54Q261.63 54.54 262.57 53.71Q263.51 52.87 263.51 51.39L263.51 51.39Q263.51 49.88 262.57 49.05Q261.63 48.21 259.72 48.21L259.72 48.21L256.32 48.21ZM290.29 65L272.95 65L272.95 43.40L289.89 43.40L289.89 48.12L279.00 48.12L279.00 51.76L288.60 51.76L288.60 56.33L279.00 56.33L279.00 60.28L290.29 60.28L290.29 65ZM304.40 65L298.29 65L298.29 48.24L291.65 48.24L291.65 43.40L311 43.40L311 48.24L304.40 48.24L304.40 65ZM323.99 65L317.88 65L317.88 48.24L311.25 48.24L311.25 43.40L330.59 43.40L330.59 48.24L323.99 48.24L323.99 65ZM343.77 65.43L343.77 65.43Q341.18 65.43 338.99 64.60Q336.80 63.77 335.18 62.24Q333.56 60.71 332.66 58.67Q331.77 56.64 331.77 54.20L331.77 54.20Q331.77 51.76 332.66 49.73Q333.56 47.69 335.18 46.16Q336.80 44.63 338.99 43.80Q341.18 42.97 343.77 42.97L343.77 42.97Q346.39 42.97 348.57 43.80Q350.74 44.63 352.35 46.16Q353.95 47.69 354.86 49.73Q355.77 51.76 355.77 54.20L355.77 54.20Q355.77 56.64 354.86 58.69Q353.95 60.74 352.35 62.25Q350.74 63.77 348.57 64.60Q346.39 65.43 343.77 65.43ZM343.77 60.37L343.77 60.37Q345.00 60.37 346.07 59.94Q347.13 59.51 347.92 58.69Q348.71 57.87 349.15 56.73Q349.60 55.59 349.60 54.20L349.60 54.20Q349.60 52.78 349.15 51.65Q348.71 50.53 347.92 49.71Q347.13 48.89 346.07 48.46Q345.00 48.03 343.77 48.03L343.77 48.03Q342.54 48.03 341.47 48.46Q340.41 48.89 339.62 49.71Q338.83 50.53 338.39 51.65Q337.94 52.78 337.94 54.20L337.94 54.20Q337.94 55.59 338.39 56.73Q338.83 57.87 339.62 58.69Q340.41 59.51 341.47 59.94Q342.54 60.37 343.77 60.37Z"/>
<path d="M129.81 98L124.16 98L124.16 76.40L129.19 76.40L136.78 88.87L144.19 76.40L149.22 76.40L149.28 98L143.66 98L143.60 86.55L138.05 95.87L135.33 95.87L129.81 86.86L129.81 98ZM157.24 98L151.01 98L160.54 76.40L166.56 76.40L176.12 98L169.77 98L168.07 93.80L158.94 93.80L157.24 98ZM160.73 89.30L166.28 89.30L163.50 82.39L160.73 89.30ZM164.74 74.64L160.54 74.64L164.68 69.95L170.54 69.95L164.74 74.64ZM194.27 98L177.85 98L177.85 76.40L183.96 76.40L183.96 93.16L194.27 93.16L194.27 98ZM200.32 98L194.08 98L203.62 76.40L209.63 76.40L219.20 98L212.84 98L211.15 93.80L202.01 93.80L200.32 98ZM203.80 89.30L209.36 89.30L206.58 82.39L203.80 89.30ZM231.73 98.43L231.73 98.43Q229.17 98.43 226.98 97.61Q224.79 96.80 223.20 95.28Q221.61 93.77 220.71 91.72Q219.82 89.67 219.82 87.20Q219.82 84.73 220.71 82.68Q221.61 80.63 223.21 79.12Q224.82 77.60 227.02 76.79Q229.23 75.97 231.85 75.97L231.85 75.97Q234.91 75.97 237.31 76.99Q239.72 78.00 241.29 79.92L241.29 79.92L237.41 83.44Q236.29 82.23 235.01 81.63Q233.73 81.03 232.16 81.03L232.16 81.03Q230.77 81.03 229.63 81.46Q228.49 81.89 227.69 82.71Q226.88 83.53 226.44 84.65Q225.99 85.78 225.99 87.20L225.99 87.20Q225.99 88.56 226.44 89.70Q226.88 90.84 227.69 91.66Q228.49 92.48 229.61 92.92Q230.74 93.37 232.10 93.37Q233.46 93.37 234.75 92.91L234.75 92.91Q235.06 92.82 235.40 92.66L235.40 92.66L235.40 86.74L240.80 86.74L240.80 95.69Q238.95 97.01 236.51 97.72Q234.07 98.43 231.73 98.43ZM248.33 98L242.10 98L251.63 76.40L257.65 76.40L267.21 98L260.86 98L259.16 93.80L250.03 93.80L248.33 98ZM251.82 89.30L257.37 89.30L254.59 82.39L251.82 89.30Z"/>
</g>
</svg>